/* XPM */
static char *result[] = {
/* columns rows colors chars-per-pixel */
"64 64 7 1 ",
"  c #B1B2B5",
". c #C2C3C7",
"X c #FFF1E8",
"o c #F0EEA1",
"O c #ABE4EB",
"+ c #EBABCA",
"@ c white",
/* pixels */
" ... ... ... ... ... ... ... ... ... ... ... ... ... ... ... ...",
".XXX.XXX.XXX.ooo.XXX.XXX.XXX.OOO.XXX.XXX.XXX.XXX.+++.XXX.XXX.XXX",
".XXX.XXX.XXX.ooo.XXX.XXX.XXX.OOO.XXX.XXX.XXX.XXX.+++.XXX.XXX.XXX",
".XXX.XXX.XXX.ooo.XXX.XXX.XXX.OOO.XXX.XXX.XXX.XXX.+++.XXX.XXX.XXX",
" ... ... ... ... ... ... ... ... ... ... ... ... ... ... ... ...",
".XXX.OOO.XXX.XXX.XXX.XXX.XXX.XXX.+++.XXX.XXX.XXX.XXX.XXX.OOO.XXX",
".XXX.OOO.XXX.XXX.XXX.XXX.XXX.XXX.+++.XXX.XXX.XXX.XXX.XXX.OOO.XXX",
".XXX.OOO.XXX.XXX.XXX.XXX.XXX.XXX.+++.XXX.XXX.XXX.XXX.XXX.OOO.XXX",
" ... ... ... ... ... ... ... ... ... ... ... ... ... ... ... ...",
".XXX.XXX.XXX.OOO.XXX.XXX.ooo.XXX.XXX.XXX.XXX.OOO.XXX.XXX.XXX.XXX",
".XXX.XXX.XXX.OOO.XXX.XXX.ooo.XXX.XXX.XXX.XXX.OOO.XXX.XXX.XXX.XXX",
".XXX.XXX.XXX.OOO.XXX.XXX.ooo.XXX.XXX.XXX.XXX.OOO.XXX.XXX.XXX.XXX",
" ... ... ... ... ... ... ... ... ... ... ... ... ... ... ... ...",
".XXX.XXX.+++.XXX.XXX.XXX.XXX.XXX.XXX.OOO.XXX.XXX.ooo.XXX.XXX.XXX",
".XXX.XXX.+++.XXX.XXX.XXX.XXX.XXX.XXX.OOO.XXX.XXX.ooo.XXX.XXX.XXX",
".XXX.XXX.+++.XXX.XXX.XXX.XXX.XXX.XXX.OOO.XXX.XXX.ooo.XXX.XXX.XXX",
" ... ... ... ... ... ... ... ... ... ... ... ... ... ... ... ...",
".ooo.XXX.XXX.XXX.XXX.+++.XXX.XXX.OOO.XXX.XXX.XXX.XXX.XXX.+++.XXX",
".ooo.XXX.XXX.XXX.XXX.+++.XXX.XXX.OOO.XXX.XXX.XXX.XXX.XXX.+++.XXX",
".ooo.XXX.XXX.XXX.XXX.+++.XXX.XXX.OOO.XXX.XXX.XXX.XXX.XXX.+++.XXX",
" ... ... ... ... ... ... ... ... ... ... ... ... ... ... ... ...",
".XXX.OOO.XXX.ooo.XXX.XXX.XXX.XXX.XXX.+++.XXX.XXX.XXX.XXX.OOO.XXX",
".XXX.OOO.XXX.ooo.XXX.XXX.XXX.XXX.XXX.+++.XXX.XXX.XXX.XXX.OOO.XXX",
".XXX.OOO.XXX.ooo.XXX.XXX.XXX.XXX.XXX.+++.XXX.XXX.XXX.XXX.OOO.XXX",
" ... ... ... ... ... ... ... ... ... ... ... ... ... ... ... ...",
".XXX.XXX.XXX.XXX.OOO.XXX.ooo.XXX.XXX.XXX.XXX.XXX.OOO.XXX.XXX.XXX",
".XXX.XXX.XXX.XXX.OOO.XXX.ooo.XXX.XXX.XXX.XXX.XXX.OOO.XXX.XXX.XXX",
".XXX.XXX.XXX.XXX.OOO.XXX.ooo.XXX.XXX.XXX.XXX.XXX.OOO.XXX.XXX.XXX",
" ... ... ... ... ... ... ... ... ... ... ... ... ... ... ... ...",
".+++.XXX.XXX.XXX.XXX.XXX.OOO.XXX.XXX.XXX.ooo.XXX.XXX.XXX.XXX.XXX",
".+++.XXX.XXX.XXX.XXX.XXX.OOO.XXX.XXX.XXX.ooo.XXX.XXX.XXX.XXX.XXX",
".+++.XXX.XXX.XXX.XXX.XXX.OOO.XXX.XXX.XXX.ooo.XXX.XXX.XXX.XXX.XXX",
" ... ... ... ... ... ... ... ... ... ... ... ... ... ... ... ...",
".XXX.XXX.XXX.ooo.XXX.XXX.XXX.OOO.XXX.XXX.XXX.XXX.+++.XXX.XXX.XXX",
".XXX.XXX.XXX.ooo.XXX.XXX.XXX.OOO.XXX.XXX.XXX.XXX.+++.XXX.XXX.XXX",
".XXX.XXX.XXX.ooo.XXX.XXX.XXX.OOO.XXX.XXX.XXX.XXX.+++.XXX.XXX.XXX",
" ... ... ... ... ... ... ... ... ... ... ... ... ... ... ... ...",
".XXX.OOO.XXX.XXX.XXX.XXX.XXX.XXX.+++.XXX.XXX.XXX.XXX.XXX.OOO.XXX",
".XXX.OOO.XXX.XXX.XXX.XXX.XXX.XXX.+++.XXX.XXX.XXX.XXX.XXX.OOO.XXX",
".XXX.OOO.XXX.XXX.XXX.XXX.XXX.XXX.+++.XXX.XXX.XXX.XXX.XXX.OOO.XXX",
" ... ... ... ... ... ... ... ... ... ... ... ... ... ... ... ...",
".XXX.XXX.XXX.OOO.XXX.XXX.ooo.XXX.XXX.XXX.XXX.OOO.XXX.XXX.XXX.XXX",
".XXX.XXX.XXX.OOO.XXX.XXX.ooo.XXX.XXX.XXX.XXX.OOO.XXX.XXX.XXX.XXX",
".XXX.XXX.XXX.OOO.XXX.XXX.ooo.XXX.XXX.XXX.XXX.OOO.XXX.XXX.XXX.XXX",
" ... ... ... ... ... ... ... ... ... ... ... ... ... ... ... ...",
".XXX.XXX.+++.XXX.XXX.XXX.XXX.XXX.XXX.OOO.XXX.XXX.ooo.XXX.XXX.XXX",
".XXX.XXX.+++.XXX.XXX.XXX.XXX.XXX.XXX.OOO.XXX.XXX.ooo.XXX.XXX.XXX",
".XXX.XXX.+++.XXX.XXX.XXX.XXX.XXX.XXX.OOO.XXX.XXX.ooo.XXX.XXX.XXX",
" ... ... ... ... ... ... ... ... ... ... ... ... ... ... ... ...",
".ooo.XXX.XXX.XXX.XXX.+++.XXX.XXX.OOO.XXX.XXX.XXX.XXX.XXX.+++.XXX",
".ooo.XXX.XXX.XXX.XXX.+++.XXX.XXX.OOO.XXX.XXX.XXX.XXX.XXX.+++.XXX",
".ooo.XXX.XXX.XXX.XXX.+++.XXX.XXX.OOO.XXX.XXX.XXX.XXX.XXX.+++.XXX",
" ... ... ... ... ... ... ... ... ... ... ... ... ... ... ... ...",
".XXX.OOO.XXX.ooo.XXX.XXX.XXX.XXX.XXX.+++.XXX.XXX.XXX.XXX.OOO.XXX",
".XXX.OOO.XXX.ooo.XXX.XXX.XXX.XXX.XXX.+++.XXX.XXX.XXX.XXX.OOO.XXX",
".XXX.OOO.XXX.ooo.XXX.XXX.XXX.XXX.XXX.+++.XXX.XXX.XXX.XXX.OOO.XXX",
" ... ... ... ... ... ... ... ... ... ... ... ... ... ... ... ...",
".XXX.XXX.XXX.XXX.OOO.XXX.ooo.XXX.XXX.XXX.XXX.XXX.OOO.XXX.XXX.XXX",
".XXX.XXX.XXX.XXX.OOO.XXX.ooo.XXX.XXX.XXX.XXX.XXX.OOO.XXX.XXX.XXX",
".XXX.XXX.XXX.XXX.OOO.XXX.ooo.XXX.XXX.XXX.XXX.XXX.OOO.XXX.XXX.XXX",
" ... ... ... ... ... ... ... ... ... ... ... ... ... ... ... ...",
".+++.XXX.XXX.XXX.XXX.XXX.OOO.XXX.XXX.XXX.ooo.XXX.XXX.XXX.XXX.XXX",
".+++.XXX.XXX.XXX.XXX.XXX.OOO.XXX.XXX.XXX.ooo.XXX.XXX.XXX.XXX.XXX",
".+++.XXX.XXX.XXX.XXX.XXX.OOO.XXX.XXX.XXX.ooo.XXX.XXX.XXX.XXX.XXX"
};
