/* XPM */
static char *result[] = {
/* columns rows colors chars-per-pixel */
"64 64 5 1 ",
"  c #B1B2B5",
". c #C2C3C7",
"X c #FFF1E8",
"o c #EBDED8",
"O c white",
/* pixels */
" ... ... ... ... ... ... ... ... ... ... ... ... ... ... ... ...",
".XXX.XXX.XXX.XXX.XXX.XXX.XXX.ooo.XXX.XXX.XXX.XXX.XXX.XXX.XXX.XXX",
".XXX.XXX.XXX.XXX.XXX.XXX.XXX.ooo.XXX.XXX.XXX.XXX.XXX.XXX.XXX.XXX",
".XXX.XXX.XXX.XXX.XXX.XXX.XXX.ooo.XXX.XXX.XXX.XXX.XXX.XXX.XXX.XXX",
" ... ... ... ... ... ... ... ... ... ... ... ... ... ... ... ...",
".XXX.ooo.XXX.XXX.XXX.XXX.XXX.XXX.XXX.XXX.XXX.XXX.XXX.XXX.ooo.XXX",
".XXX.ooo.XXX.XXX.XXX.XXX.XXX.XXX.XXX.XXX.XXX.XXX.XXX.XXX.ooo.XXX",
".XXX.ooo.XXX.XXX.XXX.XXX.XXX.XXX.XXX.XXX.XXX.XXX.XXX.XXX.ooo.XXX",
" ... ... ... ... ... ... ... ... ... ... ... ... ... ... ... ...",
".XXX.XXX.XXX.ooo.XXX.XXX.XXX.XXX.XXX.XXX.XXX.ooo.XXX.XXX.XXX.XXX",
".XXX.XXX.XXX.ooo.XXX.XXX.XXX.XXX.XXX.XXX.XXX.ooo.XXX.XXX.XXX.XXX",
".XXX.XXX.XXX.ooo.XXX.XXX.XXX.XXX.XXX.XXX.XXX.ooo.XXX.XXX.XXX.XXX",
" ... ... ... ... ... ... ... ... ... ... ... ... ... ... ... ...",
".XXX.XXX.XXX.XXX.XXX.XXX.XXX.XXX.XXX.ooo.XXX.XXX.XXX.XXX.XXX.XXX",
".XXX.XXX.XXX.XXX.XXX.XXX.XXX.XXX.XXX.ooo.XXX.XXX.XXX.XXX.XXX.XXX",
".XXX.XXX.XXX.XXX.XXX.XXX.XXX.XXX.XXX.ooo.XXX.XXX.XXX.XXX.XXX.XXX",
" ... ... ... ... ... ... ... ... ... ... ... ... ... ... ... ...",
".XXX.XXX.XXX.XXX.XXX.XXX.XXX.XXX.ooo.XXX.XXX.XXX.XXX.XXX.XXX.XXX",
".XXX.XXX.XXX.XXX.XXX.XXX.XXX.XXX.ooo.XXX.XXX.XXX.XXX.XXX.XXX.XXX",
".XXX.XXX.XXX.XXX.XXX.XXX.XXX.XXX.ooo.XXX.XXX.XXX.XXX.XXX.XXX.XXX",
" ... ... ... ... ... ... ... ... ... ... ... ... ... ... ... ...",
".XXX.ooo.XXX.XXX.XXX.XXX.XXX.XXX.XXX.XXX.XXX.XXX.XXX.XXX.ooo.XXX",
".XXX.ooo.XXX.XXX.XXX.XXX.XXX.XXX.XXX.XXX.XXX.XXX.XXX.XXX.ooo.XXX",
".XXX.ooo.XXX.XXX.XXX.XXX.XXX.XXX.XXX.XXX.XXX.XXX.XXX.XXX.ooo.XXX",
" ... ... ... ... ... ... ... ... ... ... ... ... ... ... ... ...",
".XXX.XXX.XXX.XXX.ooo.XXX.XXX.XXX.XXX.XXX.XXX.XXX.ooo.XXX.XXX.XXX",
".XXX.XXX.XXX.XXX.ooo.XXX.XXX.XXX.XXX.XXX.XXX.XXX.ooo.XXX.XXX.XXX",
".XXX.XXX.XXX.XXX.ooo.XXX.XXX.XXX.XXX.XXX.XXX.XXX.ooo.XXX.XXX.XXX",
" ... ... ... ... ... ... ... ... ... ... ... ... ... ... ... ...",
".XXX.XXX.XXX.XXX.XXX.XXX.ooo.XXX.XXX.XXX.XXX.XXX.XXX.XXX.XXX.XXX",
".XXX.XXX.XXX.XXX.XXX.XXX.ooo.XXX.XXX.XXX.XXX.XXX.XXX.XXX.XXX.XXX",
".XXX.XXX.XXX.XXX.XXX.XXX.ooo.XXX.XXX.XXX.XXX.XXX.XXX.XXX.XXX.XXX",
" ... ... ... ... ... ... ... ... ... ... ... ... ... ... ... ...",
".XXX.XXX.XXX.XXX.XXX.XXX.XXX.ooo.XXX.XXX.XXX.XXX.XXX.XXX.XXX.XXX",
".XXX.XXX.XXX.XXX.XXX.XXX.XXX.ooo.XXX.XXX.XXX.XXX.XXX.XXX.XXX.XXX",
".XXX.XXX.XXX.XXX.XXX.XXX.XXX.ooo.XXX.XXX.XXX.XXX.XXX.XXX.XXX.XXX",
" ... ... ... ... ... ... ... ... ... ... ... ... ... ... ... ...",
".XXX.ooo.XXX.XXX.XXX.XXX.XXX.XXX.XXX.XXX.XXX.XXX.XXX.XXX.ooo.XXX",
".XXX.ooo.XXX.XXX.XXX.XXX.XXX.XXX.XXX.XXX.XXX.XXX.XXX.XXX.ooo.XXX",
".XXX.ooo.XXX.XXX.XXX.XXX.XXX.XXX.XXX.XXX.XXX.XXX.XXX.XXX.ooo.XXX",
" ... ... ... ... ... ... ... ... ... ... ... ... ... ... ... ...",
".XXX.XXX.XXX.ooo.XXX.XXX.XXX.XXX.XXX.XXX.XXX.ooo.XXX.XXX.XXX.XXX",
".XXX.XXX.XXX.ooo.XXX.XXX.XXX.XXX.XXX.XXX.XXX.ooo.XXX.XXX.XXX.XXX",
".XXX.XXX.XXX.ooo.XXX.XXX.XXX.XXX.XXX.XXX.XXX.ooo.XXX.XXX.XXX.XXX",
" ... ... ... ... ... ... ... ... ... ... ... ... ... ... ... ...",
".XXX.XXX.XXX.XXX.XXX.XXX.XXX.XXX.XXX.ooo.XXX.XXX.XXX.XXX.XXX.XXX",
".XXX.XXX.XXX.XXX.XXX.XXX.XXX.XXX.XXX.ooo.XXX.XXX.XXX.XXX.XXX.XXX",
".XXX.XXX.XXX.XXX.XXX.XXX.XXX.XXX.XXX.ooo.XXX.XXX.XXX.XXX.XXX.XXX",
" ... ... ... ... ... ... ... ... ... ... ... ... ... ... ... ...",
".XXX.XXX.XXX.XXX.XXX.XXX.XXX.XXX.ooo.XXX.XXX.XXX.XXX.XXX.XXX.XXX",
".XXX.XXX.XXX.XXX.XXX.XXX.XXX.XXX.ooo.XXX.XXX.XXX.XXX.XXX.XXX.XXX",
".XXX.XXX.XXX.XXX.XXX.XXX.XXX.XXX.ooo.XXX.XXX.XXX.XXX.XXX.XXX.XXX",
" ... ... ... ... ... ... ... ... ... ... ... ... ... ... ... ...",
".XXX.ooo.XXX.XXX.XXX.XXX.XXX.XXX.XXX.XXX.XXX.XXX.XXX.XXX.ooo.XXX",
".XXX.ooo.XXX.XXX.XXX.XXX.XXX.XXX.XXX.XXX.XXX.XXX.XXX.XXX.ooo.XXX",
".XXX.ooo.XXX.XXX.XXX.XXX.XXX.XXX.XXX.XXX.XXX.XXX.XXX.XXX.ooo.XXX",
" ... ... ... ... ... ... ... ... ... ... ... ... ... ... ... ...",
".XXX.XXX.XXX.XXX.ooo.XXX.XXX.XXX.XXX.XXX.XXX.XXX.ooo.XXX.XXX.XXX",
".XXX.XXX.XXX.XXX.ooo.XXX.XXX.XXX.XXX.XXX.XXX.XXX.ooo.XXX.XXX.XXX",
".XXX.XXX.XXX.XXX.ooo.XXX.XXX.XXX.XXX.XXX.XXX.XXX.ooo.XXX.XXX.XXX",
" ... ... ... ... ... ... ... ... ... ... ... ... ... ... ... ...",
".XXX.XXX.XXX.XXX.XXX.XXX.ooo.XXX.XXX.XXX.XXX.XXX.XXX.XXX.XXX.XXX",
".XXX.XXX.XXX.XXX.XXX.XXX.ooo.XXX.XXX.XXX.XXX.XXX.XXX.XXX.XXX.XXX",
".XXX.XXX.XXX.XXX.XXX.XXX.ooo.XXX.XXX.XXX.XXX.XXX.XXX.XXX.XXX.XXX"
};
