/* XPM */
static char *af7abf343cd14994e433bbc155190758yESpSu5BifKRKF1D[] = {
/* columns rows colors chars-per-pixel */
"64 64 4 1 ",
"  c #A8A65E",
". c #BAB76A",
"X c #B6B461",
"o c white",
/* pixels */
"                                                                ",
" ..............  XXXXXXXXXXXXXX  XXXXXXXXXXXXXX  XXXXXXXXXXXXXX ",
" ..............  XXXXXXXXXXXXXX  XXXXXXXXXXXXXX  XXXXXXXXXXXXXX ",
" ..............  XXXXXXXXXXXXXX  XXXXXXXXXXXXXX  XXXXXXXXXXXXXX ",
" ..............  XXXXXXXXXXXXXX  XXXXXXXXXXXXXX  XXXXXXXXXXXXXX ",
" ..............  XXXXXXXXXXXXXX  XXXXXXXXXXXXXX  XXXXXXXXXXXXXX ",
" ..............  XXXXXXXXXXXXXX  XXXXXXXXXXXXXX  XXXXXXXXXXXXXX ",
" ..............  XXXXXXXXXXXXXX  XXXXXXXXXXXXXX  XXXXXXXXXXXXXX ",
" ..............  XXXXXXXXXXXXXX  XXXXXXXXXXXXXX  XXXXXXXXXXXXXX ",
" ..............  XXXXXXXXXXXXXX  XXXXXXXXXXXXXX  XXXXXXXXXXXXXX ",
" ..............  XXXXXXXXXXXXXX  XXXXXXXXXXXXXX  XXXXXXXXXXXXXX ",
" ..............  XXXXXXXXXXXXXX  XXXXXXXXXXXXXX  XXXXXXXXXXXXXX ",
" ..............  XXXXXXXXXXXXXX  XXXXXXXXXXXXXX  XXXXXXXXXXXXXX ",
" ..............  XXXXXXXXXXXXXX  XXXXXXXXXXXXXX  XXXXXXXXXXXXXX ",
" ..............  XXXXXXXXXXXXXX  XXXXXXXXXXXXXX  XXXXXXXXXXXXXX ",
"                                                                ",
"                                                                ",
" XXXXXXXXXXXXXX  XXXXXXXXXXXXXX  XXXXXXXXXXXXXX  .............. ",
" XXXXXXXXXXXXXX  XXXXXXXXXXXXXX  XXXXXXXXXXXXXX  .............. ",
" XXXXXXXXXXXXXX  XXXXXXXXXXXXXX  XXXXXXXXXXXXXX  .............. ",
" XXXXXXXXXXXXXX  XXXXXXXXXXXXXX  XXXXXXXXXXXXXX  .............. ",
" XXXXXXXXXXXXXX  XXXXXXXXXXXXXX  XXXXXXXXXXXXXX  .............. ",
" XXXXXXXXXXXXXX  XXXXXXXXXXXXXX  XXXXXXXXXXXXXX  .............. ",
" XXXXXXXXXXXXXX  XXXXXXXXXXXXXX  XXXXXXXXXXXXXX  .............. ",
" XXXXXXXXXXXXXX  XXXXXXXXXXXXXX  XXXXXXXXXXXXXX  .............. ",
" XXXXXXXXXXXXXX  XXXXXXXXXXXXXX  XXXXXXXXXXXXXX  .............. ",
" XXXXXXXXXXXXXX  XXXXXXXXXXXXXX  XXXXXXXXXXXXXX  .............. ",
" XXXXXXXXXXXXXX  XXXXXXXXXXXXXX  XXXXXXXXXXXXXX  .............. ",
" XXXXXXXXXXXXXX  XXXXXXXXXXXXXX  XXXXXXXXXXXXXX  .............. ",
" XXXXXXXXXXXXXX  XXXXXXXXXXXXXX  XXXXXXXXXXXXXX  .............. ",
" XXXXXXXXXXXXXX  XXXXXXXXXXXXXX  XXXXXXXXXXXXXX  .............. ",
"                                                                ",
"                                                                ",
" XXXXXXXXXXXXXX  ..............  XXXXXXXXXXXXXX  XXXXXXXXXXXXXX ",
" XXXXXXXXXXXXXX  ..............  XXXXXXXXXXXXXX  XXXXXXXXXXXXXX ",
" XXXXXXXXXXXXXX  ..............  XXXXXXXXXXXXXX  XXXXXXXXXXXXXX ",
" XXXXXXXXXXXXXX  ..............  XXXXXXXXXXXXXX  XXXXXXXXXXXXXX ",
" XXXXXXXXXXXXXX  ..............  XXXXXXXXXXXXXX  XXXXXXXXXXXXXX ",
" XXXXXXXXXXXXXX  ..............  XXXXXXXXXXXXXX  XXXXXXXXXXXXXX ",
" XXXXXXXXXXXXXX  ..............  XXXXXXXXXXXXXX  XXXXXXXXXXXXXX ",
" XXXXXXXXXXXXXX  ..............  XXXXXXXXXXXXXX  XXXXXXXXXXXXXX ",
" XXXXXXXXXXXXXX  ..............  XXXXXXXXXXXXXX  XXXXXXXXXXXXXX ",
" XXXXXXXXXXXXXX  ..............  XXXXXXXXXXXXXX  XXXXXXXXXXXXXX ",
" XXXXXXXXXXXXXX  ..............  XXXXXXXXXXXXXX  XXXXXXXXXXXXXX ",
" XXXXXXXXXXXXXX  ..............  XXXXXXXXXXXXXX  XXXXXXXXXXXXXX ",
" XXXXXXXXXXXXXX  ..............  XXXXXXXXXXXXXX  XXXXXXXXXXXXXX ",
" XXXXXXXXXXXXXX  ..............  XXXXXXXXXXXXXX  XXXXXXXXXXXXXX ",
"                                                                ",
"                                                                ",
" XXXXXXXXXXXXXX  XXXXXXXXXXXXXX  ..............  XXXXXXXXXXXXXX ",
" XXXXXXXXXXXXXX  XXXXXXXXXXXXXX  ..............  XXXXXXXXXXXXXX ",
" XXXXXXXXXXXXXX  XXXXXXXXXXXXXX  ..............  XXXXXXXXXXXXXX ",
" XXXXXXXXXXXXXX  XXXXXXXXXXXXXX  ..............  XXXXXXXXXXXXXX ",
" XXXXXXXXXXXXXX  XXXXXXXXXXXXXX  ..............  XXXXXXXXXXXXXX ",
" XXXXXXXXXXXXXX  XXXXXXXXXXXXXX  ..............  XXXXXXXXXXXXXX ",
" XXXXXXXXXXXXXX  XXXXXXXXXXXXXX  ..............  XXXXXXXXXXXXXX ",
" XXXXXXXXXXXXXX  XXXXXXXXXXXXXX  ..............  XXXXXXXXXXXXXX ",
" XXXXXXXXXXXXXX  XXXXXXXXXXXXXX  ..............  XXXXXXXXXXXXXX ",
" XXXXXXXXXXXXXX  XXXXXXXXXXXXXX  ..............  XXXXXXXXXXXXXX ",
" XXXXXXXXXXXXXX  XXXXXXXXXXXXXX  ..............  XXXXXXXXXXXXXX ",
" XXXXXXXXXXXXXX  XXXXXXXXXXXXXX  ..............  XXXXXXXXXXXXXX ",
" XXXXXXXXXXXXXX  XXXXXXXXXXXXXX  ..............  XXXXXXXXXXXXXX ",
" XXXXXXXXXXXXXX  XXXXXXXXXXXXXX  ..............  XXXXXXXXXXXXXX ",
"                                                                "
};
