/* XPM */
static char *_a7ba99824114184bffa0153f6497a85cFY8s2HvRwDwLoof[] = {
/* columns rows colors chars-per-pixel */
"64 64 3 1 ",
"  c #B6B461",
". c #A8A65E",
"X c white",
/* pixels */
" ... ... ... ... ... ... ... ... ... ... ... ... ... ... ... ...",
"... ... ... ... ... ... ... ... ... ... ... ... ... ... ... ... ",
". ... ... ... ... ... ... ... ... ... ... ... ... ... ... ... ..",
".. ... ... ... ... ... ... ... ... ... ... ... ... ... ... ... .",
" ... ... ... ... ... ... ... ... ... ... ... ... ... ... ... ...",
"... ... ... ... ... ... ... ... ... ... ... ... ... ... ... ... ",
". ... ... ... ... ... ... ... ... ... ... ... ... ... ... ... ..",
".. ... ... ... ... ... ... ... ... ... ... ... ... ... ... ... .",
" ... ... ... ... ... ... ... ... ... ... ... ... ... ... ... ...",
"... ... ... ... ... ... ... ... ... ... ... ... ... ... ... ... ",
". ... ... ... ... ... ... ... ... ... ... ... ... ... ... ... ..",
".. ... ... ... ... ... ... ... ... ... ... ... ... ... ... ... .",
" ... ... ... ... ... ... ... ... ... ... ... ... ... ... ... ...",
"... ... ... ... ... ... ... ... ... ... ... ... ... ... ... ... ",
". ... ... ... ... ... ... ... ... ... ... ... ... ... ... ... ..",
".. ... ... ... ... ... ... ... ... ... ... ... ... ... ... ... .",
" ... ... ... ... ... ... ... ... ... ... ... ... ... ... ... ...",
"... ... ... ... ... ... ... ... ... ... ... ... ... ... ... ... ",
". ... ... ... ... ... ... ... ... ... ... ... ... ... ... ... ..",
".. ... ... ... ... ... ... ... ... ... ... ... ... ... ... ... .",
" ... ... ... ... ... ... ... ... ... ... ... ... ... ... ... ...",
"... ... ... ... ... ... ... ... ... ... ... ... ... ... ... ... ",
". ... ... ... ... ... ... ... ... ... ... ... ... ... ... ... ..",
".. ... ... ... ... ... ... ... ... ... ... ... ... ... ... ... .",
" ... ... ... ... ... ... ... ... ... ... ... ... ... ... ... ...",
"... ... ... ... ... ... ... ... ... ... ... ... ... ... ... ... ",
". ... ... ... ... ... ... ... ... ... ... ... ... ... ... ... ..",
".. ... ... ... ... ... ... ... ... ... ... ... ... ... ... ... .",
" ... ... ... ... ... ... ... ... ... ... ... ... ... ... ... ...",
"... ... ... ... ... ... ... ... ... ... ... ... ... ... ... ... ",
". ... ... ... ... ... ... ... ... ... ... ... ... ... ... ... ..",
".. ... ... ... ... ... ... ... ... ... ... ... ... ... ... ... .",
" ... ... ... ... ... ... ... ... ... ... ... ... ... ... ... ...",
"... ... ... ... ... ... ... ... ... ... ... ... ... ... ... ... ",
". ... ... ... ... ... ... ... ... ... ... ... ... ... ... ... ..",
".. ... ... ... ... ... ... ... ... ... ... ... ... ... ... ... .",
" ... ... ... ... ... ... ... ... ... ... ... ... ... ... ... ...",
"... ... ... ... ... ... ... ... ... ... ... ... ... ... ... ... ",
". ... ... ... ... ... ... ... ... ... ... ... ... ... ... ... ..",
".. ... ... ... ... ... ... ... ... ... ... ... ... ... ... ... .",
" ... ... ... ... ... ... ... ... ... ... ... ... ... ... ... ...",
"... ... ... ... ... ... ... ... ... ... ... ... ... ... ... ... ",
". ... ... ... ... ... ... ... ... ... ... ... ... ... ... ... ..",
".. ... ... ... ... ... ... ... ... ... ... ... ... ... ... ... .",
" ... ... ... ... ... ... ... ... ... ... ... ... ... ... ... ...",
"... ... ... ... ... ... ... ... ... ... ... ... ... ... ... ... ",
". ... ... ... ... ... ... ... ... ... ... ... ... ... ... ... ..",
".. ... ... ... ... ... ... ... ... ... ... ... ... ... ... ... .",
" ... ... ... ... ... ... ... ... ... ... ... ... ... ... ... ...",
"... ... ... ... ... ... ... ... ... ... ... ... ... ... ... ... ",
". ... ... ... ... ... ... ... ... ... ... ... ... ... ... ... ..",
".. ... ... ... ... ... ... ... ... ... ... ... ... ... ... ... .",
" ... ... ... ... ... ... ... ... ... ... ... ... ... ... ... ...",
"... ... ... ... ... ... ... ... ... ... ... ... ... ... ... ... ",
". ... ... ... ... ... ... ... ... ... ... ... ... ... ... ... ..",
".. ... ... ... ... ... ... ... ... ... ... ... ... ... ... ... .",
" ... ... ... ... ... ... ... ... ... ... ... ... ... ... ... ...",
"... ... ... ... ... ... ... ... ... ... ... ... ... ... ... ... ",
". ... ... ... ... ... ... ... ... ... ... ... ... ... ... ... ..",
".. ... ... ... ... ... ... ... ... ... ... ... ... ... ... ... .",
" ... ... ... ... ... ... ... ... ... ... ... ... ... ... ... ...",
"... ... ... ... ... ... ... ... ... ... ... ... ... ... ... ... ",
". ... ... ... ... ... ... ... ... ... ... ... ... ... ... ... ..",
".. ... ... ... ... ... ... ... ... ... ... ... ... ... ... ... ."
};
