/* XPM */
static char *_8617e109e5f4308ab5e30e39201a817melKbmyzmsUAqsdQ[] = {
/* columns rows colors chars-per-pixel */
"64 64 256 2 ",
"   c black",
".  c #0000A8",
"X  c #00A800",
"o  c #00A8A8",
"O  c #A80000",
"+  c #A800A8",
"@  c #A85400",
"#  c gray66",
"$  c gray33",
"%  c #5454FC",
"&  c #54FC54",
"*  c #54FCFC",
"=  c #FC5454",
"-  c #FC54FC",
";  c #FCFC54",
":  c gray99",
">  c #ECECEC",
",  c gainsboro",
"<  c #D0D0D0",
"1  c #C0C0C0",
"2  c #B4B4B4",
"3  c gray66",
"4  c #989898",
"5  c gray55",
"6  c #7C7C7C",
"7  c gray44",
"8  c #646464",
"9  c gray33",
"0  c #484848",
"q  c gray22",
"w  c #2C2C2C",
"e  c #202020",
"r  c #FC0000",
"t  c #EC0000",
"y  c #E00000",
"u  c #D40000",
"i  c #C80000",
"p  c #BC0000",
"a  c #B00000",
"s  c #A40000",
"d  c #980000",
"f  c #880000",
"g  c #7C0000",
"h  c #700000",
"j  c #640000",
"k  c #580000",
"l  c #4C0000",
"z  c #400000",
"x  c #FCD8D8",
"c  c #FCB8B8",
"v  c #FC9C9C",
"b  c #FC7C7C",
"n  c #FC5C5C",
"m  c #FC4040",
"M  c #FC2020",
"N  c #FC0000",
"B  c #FCA85C",
"V  c #FC9840",
"C  c #FC8820",
"Z  c #FC7800",
"A  c #E46C00",
"S  c #CC6000",
"D  c #B45400",
"F  c #9C4C00",
"G  c #FCFCD8",
"H  c #FCFCB8",
"J  c #FCFC9C",
"K  c #FCFC7C",
"L  c #FCF85C",
"P  c #FCF440",
"I  c #FCF420",
"U  c #FCF400",
"Y  c #E4D800",
"T  c #CCC400",
"R  c #B4AC00",
"E  c #9C9C00",
"W  c #848400",
"Q  c #706C00",
"!  c #585400",
"~  c #404000",
"^  c #D0FC5C",
"/  c #C4FC40",
"(  c #B4FC20",
")  c #A0FC00",
"_  c #90E400",
"`  c #80CC00",
"'  c #74B400",
"]  c #609C00",
"[  c #D8FCD8",
"{  c #BCFCB8",
"}  c #9CFC9C",
"|  c #80FC7C",
" . c #60FC5C",
".. c #40FC40",
"X. c #20FC20",
"o. c #00FC00",
"O. c #00FC00",
"+. c #00EC00",
"@. c #00E000",
"#. c #00D400",
"$. c #04C800",
"%. c #04BC00",
"&. c #04B000",
"*. c #04A400",
"=. c #049800",
"-. c #048800",
";. c #047C00",
":. c #047000",
">. c #046400",
",. c #045800",
"<. c #044C00",
"1. c #044000",
"2. c #D8FCFC",
"3. c #B8FCFC",
"4. c #9CFCFC",
"5. c #7CFCF8",
"6. c #5CFCFC",
"7. c #40FCFC",
"8. c #20FCFC",
"9. c #00FCFC",
"0. c #00E4E4",
"q. c #00CCCC",
"w. c #00B4B4",
"e. c #009C9C",
"r. c #008484",
"t. c #007070",
"y. c #005858",
"u. c #004040",
"i. c #5CBCFC",
"p. c #40B0FC",
"a. c #20A8FC",
"s. c #009CFC",
"d. c #008CE4",
"f. c #007CCC",
"g. c #006CB4",
"h. c #005C9C",
"j. c #D8D8FC",
"k. c #B8BCFC",
"l. c #9C9CFC",
"z. c #7C80FC",
"x. c #5C60FC",
"c. c #4040FC",
"v. c #2024FC",
"b. c #0004FC",
"n. c #0000FC",
"m. c #0000EC",
"M. c #0000E0",
"N. c #0000D4",
"B. c #0000C8",
"V. c #0000BC",
"C. c #0000B0",
"Z. c #0000A4",
"A. c #000098",
"S. c #000088",
"D. c #00007C",
"F. c #000070",
"G. c #000064",
"H. c #000058",
"J. c #00004C",
"K. c #000040",
"L. c #282828",
"P. c #FCE034",
"I. c #FCD424",
"U. c #FCCC18",
"Y. c #FCC008",
"T. c #FCB400",
"R. c #B420FC",
"E. c #A800FC",
"W. c #9800E4",
"Q. c #8000CC",
"!. c #7400B4",
"~. c #60009C",
"^. c #500084",
"/. c #440070",
"(. c #340058",
"). c #280040",
"_. c #FCD8FC",
"`. c #FCB8FC",
"'. c #FC9CFC",
"]. c #FC7CFC",
"[. c #FC5CFC",
"{. c #FC40FC",
"}. c #FC20FC",
"|. c #FC00FC",
" X c #E000E4",
".X c #C800CC",
"XX c #B400B4",
"oX c #9C009C",
"OX c #840084",
"+X c #6C0070",
"@X c #580058",
"#X c #400040",
"$X c #FCE8DC",
"%X c #FCE0D0",
"&X c #FCD8C4",
"*X c #FCD4BC",
"=X c #FCCCB0",
"-X c #FCC4A4",
";X c #FCBC9C",
":X c #FCB890",
">X c #FCB080",
",X c #FCA470",
"<X c #FC9C60",
"1X c #F0945C",
"2X c #E88C58",
"3X c #DC8854",
"4X c #D08050",
"5X c #C87C4C",
"6X c #BC7848",
"7X c #B47044",
"8X c #A86840",
"9X c #A0643C",
"0X c #9C6038",
"qX c #905C34",
"wX c #885830",
"eX c #80502C",
"rX c #744C28",
"tX c #6C4824",
"yX c #5C4020",
"uX c #543C1C",
"iX c #483818",
"pX c #403018",
"aX c #382C14",
"sX c #28200C",
"dX c #600064",
"fX c #006464",
"gX c #006060",
"hX c #00001C",
"jX c #00002C",
"kX c #302410",
"lX c #480048",
"zX c #500050",
"xX c #000034",
"cX c gray11",
"vX c #4C4C4C",
"bX c gray36",
"nX c gray25",
"mX c gray19",
"MX c #343434",
"NX c #D8F4F4",
"BX c #B8E8E8",
"VX c #9CDCDC",
"CX c #74C8C8",
"ZX c #48C0C0",
"AX c #20B4B4",
"SX c #20B0B0",
"DX c #00A4A4",
"FX c #009898",
"GX c #008C8C",
"HX c #008484",
"JX c #007C7C",
"KX c #007878",
"LX c #007474",
"PX c #007070",
"IX c #006C6C",
"UX c #980088",
/* pixels */
"q H.G.G.G.G.G.G.G.G.G.G.G.G.G.G.G.G.G.G.G.H.q q H.G.G.G.G.G.G.G.G.G.G.G.G.G.G.G.G.G.G.G.G.G.G.G.G.G.G.H.q q H.G.G.G.G.G.G.G.H.q ",
"  H.H.H.H.H.H.H.H.H.H.H.H.H.H.H.H.H.H.H.H.H.e e F.F.F.F.F.F.F.F.F.F.F.F.F.F.F.F.F.F.F.F.F.F.F.F.F.F.F.F.e e G.G.G.G.G.G.G.G.G.  ",
"  H.H.H.J.H.K.H.H.K.K.K.K.K.K.K.K.H.K.K.K.e     F.H.F.G.K.H.F.K.K.K.K.K.H.H.K.K.K.H.F.H.K.K.H.F.F.H.K.K.    G.F.H.K.H.G.G.K.K.  ",
"  H.J.K.J.K.K.K.K.K.H.K.H.K.K.K.K.K.K.K.K.K.    F.F.H.K.K.K.K.K.e K.e e K.H.H.K.K.K.K.K.K.e K.K.K.K.K.K.    G.G.H.H.K.K.H.H.e   ",
"  H.J.H.J.J.J.K.K.K.K.K.K.K.K.K.e e K.e e K.                                                                G.H.G.F.F.G.H.K.K.  ",
"  H.J.J.H.H.H.J.K.K.J.H.J.K.K.K.e e K.e e e     H.H.H.H.H.H.H.H.H.H.H.H.H.H.H.H.H.H.H.                      G.F.H.G.H.J.K.K.e   ",
"  H.J.J.G.G.H.H.H.K.H.H.H.J.K.K.K.K.e K.K.K.    H.F.F.F.G.H.K.K.F.K.K.G.K.K.G.F.F.H.H.    H.H.H.H.K.K.K.    G.J.J.H.J.J.J.K.K.  ",
"  H.H.K.H.G.G.H.J.K.J.H.H.J.K.K.e e K.e e K.    H.G.F.F.F.G.H.F.H.K.K.K.G.G.H.H.H.K.H.    H.J.J.K.K.K.K.    G.K.K.H.K.J.J.K.K.  ",
"  H.J.K.J.H.H.J.K.K.K.J.J.J.K.J.J.e K.K.e e     H.G.F.F.F.K.G.H.H.F.K.K.H.K.H.K.K.H.K.    H.J.J.J.K.K.K.    G.F.H.K.H.H.K.K.e   ",
"  H.J.K.K.H.J.K.K.H.H.K.e K.K.J.J.J.K.K.e e     H.G.G.G.K.K.K.G.H.H.H.H.K.K.K.K.K.K.K.    H.H.J.J.K.e e     F.K.K.K.H.H.J.e K.  ",
"  J.J.K.H.K.K.K.K.H.H.K.K.e e K.J.J.K.K.e       H.F.G.G.G.K.K.G.F.F.H.H.K.H.K.K.K.K.e     H.H.K.K.H.K.e     F.K.F.H.e J.e e K.  ",
"  J.K.K.K.K.H.K.K.K.e K.K.e e K.K.e K.e K.e     H.F.H.H.G.G.G.G.F.G.G.H.J.K.K.H.K.K.K.    H.J.J.K.K.e e     F.F.K.K.K.e K.e e   ",
"  J.K.K.K.K.K.K.K.K.K.K.K.K.K.K.K.K.K.K.K.K.    H.G.H.H.K.F.K.K.H.G.G.H.J.K.K.K.e e K.    H.J.J.J.K.K.K.    F.K.K.K.K.K.e e e   ",
"  K.K.K.K.K.K.K.e e K.K.K.K.K.K.K.  K.K.e e     H.G.H.F.K.K.K.K.K.K.J.J.J.K.K.K.K.K.e     H.H.J.J.K.K.K.    F.K.K.K.e e e e e   ",
"  K.K.K.K.K.K.K.K.K.K.e e K.e K.e e e e   e     H.F.F.H.K.K.K.H.H.K.K.K.K.K.J.J.K.e e     H.J.K.H.e e e                         ",
"                                                H.F.H.H.K.K.K.H.H.H.K.K.G.G.J.J.J.e e     H.H.H.J.H.e K.                        ",
"H.F.G.H.G.H.H.H.H.H.G.H.H.H.H.  G.G.G.H.H.K.K.  H.G.K.H.K.K.H.H.H.H.K.K.G.G.H.J.J.e e     J.H.J.H.J.K.K.    H.H.H.H.  F.F.F.F.F.",
"F.G.H.K.H.F.G.H.K.H.H.K.H.K.K.  G.G.K.F.F.K.F.  H.H.H.H.F.H.K.H.H.H.K.K.K.H.H.K.K.e e     J.J.K.K.K.K.e     H.G.K.K.  F.F.H.G.F.",
"F.G.K.K.K.H.H.K.K.K.K.K.K.K.K.  G.F.F.G.J.K.K.  H.G.K.H.F.H.K.K.K.K.K.K.K.K.K.K.K.e e     J.K.e e e K.K.    H.G.G.K.  F.H.G.G.G.",
"G.H.K.G.G.K.K.K.K.K.K.K.K.K.K.  G.F.G.G.H.K.K.  H.G.H.H.H.K.H.K.K.K.K.K.e e e K.K.e e     K.K.e K.e e K.    H.K.K.e   F.F.F.G.G.",
"H.K.K.G.F.G.J.K.K.K.K.K.e K.K.  G.F.J.H.H.H.K.  H.H.H.K.K.K.K.K.K.e K.K.e K.K.e e e e     K.K.K.e e K.K.    H.e K.e   F.F.G.G.G.",
"H.H.K.J.G.G.J.J.K.K.J.J.K.K.K.  G.J.F.J.H.H.K.                                                                        F.F.H.H.J.",
"G.K.K.K.J.H.J.J.J.J.J.J.K.e e   G.J.J.K.K.K.e                                                     G.G.G.G.G.G.G.G.    F.H.H.J.K.",
"G.H.K.K.K.K.J.K.J.J.J.J.K.K.e   G.F.K.K.K.e K.    G.G.G.G.G.G.G.G.G.G.G.G.G.G.G.G.G.G.G.G.K.H.    G.D.G.D.H.H.H.J.    F.G.H.J.K.",
"G.G.K.K.G.K.K.K.J.J.J.K.e e e   H.F.K.K.K.K.e     G.F.G.H.F.F.F.G.F.H.G.H.F.G.K.H.F.F.F.K.H.e     G.D.G.D.D.H.J.K.    F.F.G.J.K.",
"G.H.K.K.K.G.G.K.K.J.J.J.K.e K.  H.K.K.K.K.e K.    G.F.H.G.D.D.F.F.G.F.H.F.H.H.F.F.H.H.H.H.K.e     G.D.D.D.D.H.J.K.    F.G.F.H.H.",
"H.K.K.K.H.G.G.H.K.J.J.J.K.e K.  K.K.e e e e K.    G.G.H.F.D.D.D.F.F.G.F.G.K.H.K.K.H.K.K.H.e e     G.G.H.D.H.K.H.K.    F.F.F.H.H.",
"G.K.G.K.K.H.G.H.K.K.K.K.K.e e                     G.F.F.G.G.D.D.H.H.F.K.H.H.K.K.K.K.H.K.K.e e     G.D.H.H.H.H.J.K.    F.F.F.G.G.",
"H.K.K.H.H.K.H.H.K.K.e K.e e e                     G.G.F.G.G.G.H.H.H.F.H.H.H.K.K.K.K.K.e e e K.    G.D.D.H.H.J.J.K.    F.H.H.F.G.",
"H.K.K.H.H.H.K.K.K.e e e K.e e     G.G.G.G.H.H.    G.H.H.F.G.K.K.H.F.G.K.H.H.K.K.K.K.K.K.K.e e     G.D.D.J.K.H.H.e     F.H.H.G.G.",
"H.K.K.K.H.H.K.K.K.e e e e e e     G.G.K.H.K.K.    G.F.G.F.G.K.K.H.H.H.K.H.H.H.K.K.K.e K.K.K.e     G.G.D.J.K.J.H.e     F.F.H.J.J.",
"H.K.J.K.K.K.K.K.K.K.e e e   e     G.H.H.K.K.K.    G.F.F.H.G.G.G.K.H.K.K.K.H.H.K.e K.e K.K.K.e     G.G.H.J.G.H.H.K.    F.H.J.K.K.",
"H.J.H.K.K.J.J.K.K.K.K.e   e       G.H.K.K.K.K.    G.F.H.K.H.G.G.H.H.K.K.K.K.K.K.K.e K.K.e e e     G.G.D.J.G.G.J.K.    F.J.K.K.K.",
"H.H.J.K.K.J.J.K.e K.K.e e   e     G.G.H.G.K.e     G.H.H.F.K.H.H.K.K.K.K.K.K.K.K.K.K.K.K.K.K.e     G.H.D.H.J.K.K.e     F.F.J.K.K.",
"J.J.K.K.K.K.K.K.e e e e e e       G.G.G.K.K.K.    G.K.F.K.H.H.K.K.K.K.K.K.K.K.K.e e K.K.K.K.e     G.D.H.H.J.e K.K.    F.G.H.K.K.",
"J.J.K.J.J.K.K.K.e e e e e e       G.G.G.H.e e     G.H.F.K.H.H.K.K.K.e K.K.K.K.e e e e K.K.K.e     G.D.H.J.K.K.K.e     F.H.H.J.K.",
"J.K.K.J.J.K.K.K.e K.e e e K.e     G.H.J.e K.K.    G.H.K.H.H.K.e e e e K.K.K.K.e e e e e e e e     G.D.H.K.K.K.K.K.    F.G.H.H.K.",
"K.K.K.K.K.K.K.e K.e e e e e e     G.J.K.G.e K.                                                    H.G.H.J.K.K.K.K.    F.G.G.J.K.",
"K.K.K.K.K.K.K.e e e K.K.e e e     G.G.J.G.K.e                                                     H.G.G.H.J.e K.K.    F.F.J.K.K.",
"K.K.K.K.K.K.K.K.e e K.e e K.K.    G.G.J.K.e K.    H.H.H.H.H.H.H.H.H.H.H.H.H.H.H.H.H.H.H.H.H.H.    H.G.H.F.H.K.K.K.    F.G.K.K.K.",
"                                  G.G.J.K.e e     H.F.F.F.F.F.F.G.H.H.H.H.H.H.H.K.K.K.F.K.H.K.    H.D.H.H.F.K.e e               ",
"          e e K.K.K.K.K.K.K.K.    H.G.K.K.K.e     G.F.D.D.F.H.H.G.G.G.J.J.J.H.H.J.J.J.K.K.K.K.    H.H.H.H.K.K.e K.    K.K.K.K.  ",
"  K.H.G.F.F.F.F.F.F.F.F.F.F.F.    H.H.K.K.K.K.    G.F.D.D.D.G.G.G.G.G.J.J.K.K.J.J.J.J.K.K.K.K.    H.D.H.K.K.e e K.    K.J.J.K.  ",
"  H.F.F.F.F.F.G.H.G.F.H.H.H.F.    H.H.K.e K.K.    G.F.F.F.F.G.G.G.G.G.J.K.K.G.G.G.J.J.K.K.K.K.    H.G.K.K.K.e K.K.    K.J.J.K.  ",
"  H.F.G.G.H.G.G.F.F.F.K.H.F.F.    H.J.K.e e e     G.F.F.G.F.G.G.G.K.H.J.J.K.G.G.G.G.K.K.K.K.K.    H.H.K.K.K.e e e     K.K.K.e   ",
"  F.F.F.G.G.F.F.J.J.H.F.F.K.G.                    H.G.F.G.F.F.H.H.F.H.H.J.J.K.K.G.G.e K.K.e K.    K.K.K.e e e K.K.    K.K.K.e   ",
"  F.H.G.H.G.G.G.J.K.K.F.H.K.K.                    H.H.G.F.H.H.F.H.F.H.H.H.H.e K.K.K.K.K.e K.e                         K.K.e K.  ",
"  F.F.G.J.J.G.G.H.K.K.H.F.F.H.    F.F.G.H.H.K.    H.H.G.F.H.J.J.G.H.H.H.K.K.K.e K.K.e e e e K.                                  ",
"  F.F.J.H.F.G.J.H.G.G.G.K.H.H.    F.J.F.J.J.K.    H.F.F.F.G.J.K.F.F.F.H.J.K.e K.e e K.e e e K.    G.G.G.G.F.F.F.F.F.F.F.F.F.F.  ",
"  F.F.F.F.H.J.F.K.G.J.J.H.K.H.    F.H.G.G.K.K.    H.G.H.H.G.G.G.F.F.F.F.H.J.K.K.e K.e e e e K.    G.G.H.H.G.G.G.G.H.K.F.H.H.K.  ",
"  F.H.F.J.H.H.F.G.J.K.K.J.H.H.    F.F.J.H.J.K.    H.F.H.H.H.K.H.F.F.F.F.H.H.J.e e e e e e K.K.    G.H.G.F.H.G.G.G.K.H.H.H.K.K.  ",
"  F.G.J.J.F.D.F.H.K.H.K.J.H.H.    F.G.H.H.J.H.    H.F.F.H.H.F.J.J.F.F.F.H.H.J.K.e e K.e   e e     G.F.F.F.G.G.G.G.J.K.H.K.K.K.  ",
"  F.H.F.H.D.A.D.J.J.H.J.K.K.J.    F.G.H.K.H.K.    H.H.F.J.J.J.K.K.J.H.H.H.J.K.K.K.K.e e e   e     G.J.F.J.J.G.G.G.H.H.J.K.K.e   ",
"  F.G.F.G.F.D.F.H.K.J.H.K.K.J.    F.H.G.G.K.K.    H.H.F.H.J.J.K.K.K.J.J.J.e e K.e K.K.e e e       G.F.G.K.K.J.H.H.H.J.J.K.e K.  ",
"  F.H.F.G.G.G.J.K.K.K.K.J.K.K.    F.F.G.J.J.K.    H.K.F.F.J.J.K.K.K.K.K.K.K.e e K.e e e   e       G.G.H.J.K.K.H.J.K.K.K.e e K.  ",
"  H.F.G.G.H.J.K.K.H.J.K.K.K.K.    F.G.H.J.J.J.    H.F.K.H.F.H.K.K.K.K.K.K.e e K.e K.e e e         G.G.J.H.K.K.H.K.K.K.J.J.e e   ",
"  F.H.F.G.J.K.G.K.H.H.J.K.K.e     F.H.F.K.J.J.    H.F.H.H.H.K.K.H.H.K.K.e K.e e e e e e e e       G.G.F.G.K.G.G.J.K.K.J.J.J.e   ",
"  F.H.F.H.J.K.K.K.J.H.J.K.K.K.    F.F.H.K.K.K.    H.H.H.K.K.K.K.H.H.H.K.K.K.K.e e e e e e   e     F.F.G.K.H.G.G.G.J.K.K.J.J.K.  ",
"  G.H.J.J.J.H.K.K.K.J.J.K.K.K.    F.G.H.K.K.e     H.G.H.K.K.F.H.K.H.H.e e K.K.K.e e e   K.e       F.G.H.K.H.H.G.G.J.K.K.K.K.K.  ",
"  G.H.J.J.K.K.H.K.K.K.e K.e e     G.H.J.K.K.e     H.G.F.K.F.F.H.e K.K.K.e e K.K.e e e e   e e     F.G.H.F.H.H.J.J.J.K.K.K.e e   ",
"  H.H.J.K.K.K.e K.e K.K.K.K.K.    G.H.K.K.K.K.    H.H.G.F.H.K.K.e K.e K.e e e e e e e e e   e     F.F.F.J.H.K.K.K.K.K.K.K.K.K.  ",
"  H.J.J.K.K.K.e e K.e K.K.e e e e H.J.K.K.e K.e e H.H.K.H.K.e K.e e e e K.e K.e   e   e e e e e e F.H.H.K.K.H.K.K.e K.K.e e K.  ",
"  J.K.K.K.K.K.e K.e e K.K.e K.w w H.K.K.e e K.w w H.K.K.K.K.K.e e e K.e e e e   e   e   e K.K.w w F.H.F.H.K.K.K.K.e K.K.K.K.e   ",
"q D.S.S.S.S.S.D.D.D.D.D.D.D.D.0 0 D.S.S.S.D.D.0 0 D.S.S.S.S.S.S.D.D.D.D.D.D.D.D.D.D.D.D.D.D.D.0 0 D.S.S.S.S.D.D.D.D.D.D.D.D.D.q "
};
