/* XPM */
static char *_6184c3cc3ca4fe5ab976b1965b3783aUV0uDcY6HcMK66Y0[] = {
/* columns rows colors chars-per-pixel */
"64 64 8 1 ",
"  c #9662F6",
". c #864DFA",
"X c #BEBCE1",
"o c #EDE28E",
"O c #F0A289",
"+ c #D4EB92",
"@ c #E895D5",
"# c white",
/* pixels */
"                                                                ",
"                                                                ",
"                                                                ",
"                                                                ",
"                                                                ",
"                                                                ",
"                                                                ",
"                                                                ",
"                                                                ",
"                                                                ",
"                                                                ",
"                                                                ",
"                                                                ",
"                                                                ",
"                                                                ",
"                                                                ",
"                                                                ",
" . ... .              ..                . ...      ..         ..",
"         .               .            .               .     .   ",
"XoooooooX  .         Xooo .         .  Xooooooo   .ooo.    . ooo",
"XooO+oooooX.       . ooooX.       .  ooooooooooX  .ooo.   . oooX",
"Xoo.... +ooX.      . ooXoX.       .Xoooo      o   .ooo.   .XooX.",
"Xoo.   ..ooo.       XoX oo .     . ooo ... . ...  .ooo.  .XooX. ",
"Xoo     .ooo.     . ooX ooX.      ooo .           .ooo. . ooo . ",
"Xoo.    .ooo.       oo  oo@.    .Xoo .            .ooo.. ooo .  ",
"Xoo    . ooX.     .Xoo .Xoo .   .Ooo .            .ooo..Xoo .   ",
"Xoo.... ooo      . ooO..XooX.    ooX              .ooo.XooX.    ",
"XooXX@XOoX .       ooX.. oo@.  . ooX.             .ooo.ooo.     ",
"XooooooooX .      Xoo .  oo+ . .Xoo .             .ooo+ooo .    ",
"XooXX@Xoooo .   . ooo.  .Xoo . .Xoo .             .ooooXooo .   ",
"Xoo....  ooo .    oo .... ooX. . oo .             .oooX. ooX.   ",
"Xoo.   .. ooX.  .XooX@X@X@+oo  . ooX              .ooo.. +oo .  ",
"Xoo.     .ooo.   oooooooooooo .  ooo .            .ooo. . ooo . ",
"Xoo      .ooo. . ooX X X  XooX. .Xoo .            .ooo.  .XooX. ",
"Xoo.     .ooo. .Xoo ...... ooO  . ooo .           .ooo.  . Xoo .",
"Xoo    ..XooX. .ooo.      .Xoo . .Xooo ... .....  .ooo.   . ooo.",
"Xoo.... Xooo. . ooX.        ooX. ..Xooo@X     o   .ooo.    .XooX",
"XooOoO+oooo . .Xoo .      . ooO . . XooooooooooX  .ooo.      ooo",
"XooooooooX .   ooo.        .XooX.  .  Xoooooooo . .ooo.     . oo",
"        ...       .                  .         .  .             ",
"      .                                 . .  .                  ",
"                                                                ",
"                                                                ",
"                                                                ",
"                                                                ",
"                                                                ",
"                                                                ",
"                                                                ",
"                                                                ",
"                                                                ",
"                                                                ",
"                                                                ",
"                                                                ",
"                                                                ",
"                                                                ",
"                                                                ",
"                                                                ",
"                                                                ",
"                                                                ",
"                                                                ",
"                                                                ",
"                                                                ",
"                                                                ",
"                                                                "
};
