/* XPM */
static char *_45ce3ec2f79447a87cdc53816f78ab1jHBcSZLw5GgN0uhv[] = {
/* columns rows colors chars-per-pixel */
"64 64 8 1 ",
"  c #D4EB92",
". c #DEFCA6",
"X c #741414",
"o c #7F5751",
"O c #F0A289",
"+ c #AA6893",
"@ c #E6E6E6",
"# c white",
/* pixels */
"                                                                ",
"                                                                ",
"                                                                ",
"                                                                ",
"                                                                ",
"                                                                ",
"                                                                ",
"                                                                ",
"                                                                ",
"                                                                ",
"                                                                ",
"                                                                ",
"                                                                ",
"                                                                ",
"                                                                ",
"                                                                ",
"                                                                ",
"                                                                ",
"                                                                ",
"                                                                ",
"                                                                ",
"                                                                ",
"      .             . . . . .     . . . . .   . . . . . . .     ",
"    .   .         .  ........ . .  ........ . ............. .   ",
"    .XXX.          XXXXXXXXXXX  .oXXXXXXXXXX.XXXXXXXXXXXXXXX.   ",
"    .XXo.         .oXXoXXXXXXo  .oXXXXXXXXXX.oXXXXoXXXXXXXXX.   ",
"    .XXo.        ..oXo. ....  . .oXo . .... .  .. .XXo....  .   ",
"    .XXo.          oXX.     .   .oXo .        .  ..XXo.   .     ",
"    .XXo.        ..oXX.         .oXX .            .XXo.         ",
"    .XXo.          oXX.         .oXX .            .XXo.         ",
"    .XXo.        ..oXX.         .oXX .            .XXo.         ",
"    .XXo.          oXo........  .oXX .            .XXo.         ",
"    .XXo.        ..oXX O O OO . .oXo .......      .XXo.         ",
"    .XXo.          oXXXXXXXXXo. .oXo+ OOOO+       .XXo.         ",
"    .XXo.        ..oXX+oooooo . .oXXXXXXXXXo      .XXo.         ",
"    .XXo.          oXo@.......  .oXXo+ooooo .     .XXo.         ",
"    .XXo.        ..oXX.         .oXo........      .XXo.         ",
"    .XXo.          oXX.         .oXX .            .XXo.         ",
"    .XXo.        ..oXX.         .oXX .            .XXo.         ",
"    .XXo.         .oXX.         .oXX .            .XXo.         ",
"    .XXo..   .    .oXX.   .  .  .oXX .            .XXo.         ",
"    .XXo....... . .oXo.......   .oXX .            .XXo.         ",
"    .XXXoooooooo ..oXXoooooooo ..+Xo .            .XXo.         ",
"    .XXXXXXXXXXX . XXXXXXXXXXXo..oXX .            .XXo.         ",
"    .O         O  . O           . O               .O            ",
"     .. . . . ..    .. . . . .    ..               ...          ",
"                                                                ",
"                                                                ",
"                                                                ",
"                                                                ",
"                                                                ",
"                                                                ",
"                                                                ",
"                                                                ",
"                                                                ",
"                                                                ",
"                                                                ",
"                                                                ",
"                                                                ",
"                                                                ",
"                                                                ",
"                                                                ",
"                                                                ",
"                                                                "
};
