/* XPM */
static char *c1add08022194f85fbb6413d166aa3acIGsz0YhXTn0X7PVr[] = {
/* columns rows colors chars-per-pixel */
"64 64 8 1 ",
"  c #F79DF4",
". c #E895D5",
"X c #FDB1FD",
"o c #F68FF3",
"O c #AA6893",
"+ c #7F5751",
"@ c #741414",
"# c white",
/* pixels */
"                                                                ",
"                                                                ",
"                                                                ",
"                                                                ",
"                                                                ",
"                                                                ",
"                                                                ",
"                                                                ",
"                                                                ",
"                                                                ",
"                                                           .    ",
"               .       .                     .                  ",
"        .                      .      .            .            ",
"                                                                ",
"                                                                ",
"                                                                ",
"                                                                ",
"                                                                ",
"                                                                ",
".                                                               ",
"                                                                ",
"                                                                ",
"                                                                ",
"                                                                ",
"     X XX X         XX            XX X        XX          X   XX",
"           X X    X ..X       XXX     X     X..oX       X.o XX. ",
"  XO+@@@@@@+O X   X@@@X     XX.O+@@@@@+OoX  X@@@        X@@+X @@",
"  XO@@++++@@@@.X  X+@@X    X O@@@@+@+@@@.X  X@@+X       X@@OX @+",
"  XO@@XXXXXO@@@X  X+@@X   X.+@@+. XXX OO    X@@+X       X@@OXX X",
"  XO@@XX  XXO@@.X X+@@X  Xo+@@.XXX   XXXX   X@@+X       X@@OX   ",
"  XO@@XX   XX@@OX X+@@X X O@@.X             X@@+X       X@@OX   ",
"  XO@@ X    X@@+X X+@@X X.@@OX              X@@+X       X@@OX   ",
"  XO@@XX   XX@@OX X+@@X XO@+XX              X@@+X       X@@OX   ",
"  XO@@     XO@@.X X+@@X  +@+X               X@@+XXXXXXXXX@@OX   ",
"  XO@@XXXXX.@@OX  X+@@XX @@OX     XXXXXXX   X@@+OOOOOOOO.@@OX   ",
"  XO@@OOOOO@@OX   X+@@XXo@@OX    X.OOOOO.   X@@@@@@@@@@@@@@+X   ",
"  XO@@@@@@@@OXX   X+@@XX.@@OX    X+@@@@@+ X X@@@OO+O+O+OO@@OX   ",
"  XO@@OOOO+@+.X   X+@@XX @@OX    X.OO.+@O   X@@+XXXXXXXXX@@OX   ",
"  XO@@XXXX +@@X   X+@@X  +@+X     XXXXO@O X X@@+XX      X@@OX   ",
"  XO@@X   Xo@@.X  X+@@X  O@+XX       XO@O   X@@+X       X@@OX   ",
"  XO@@XX   X@@+X  X+@@X X.@@OX       XO@O X X@@+X       X@@OX   ",
"  XO@@X    XO@@X  X+@@X X @@+ X      XO@O   X@@+X       X@@OX   ",
"  XO@@XX   X.@@oX X+@@X  XO@@+ XX    XO@O X X@@+X       X@@OX   ",
"  XO@@X      @@OX X+@@X  XXO@@+O XXXXX+@O X X@@+X       X@@OX   ",
"  XO@@XX    X@@+X X+@@X  oX O@@@@++++@@@+   X@@+X       X@@OX   ",
"  XO@@ X    XO@@.XX@@@X    XX.O+@@@@@@+O.X  X@@@        X@@+X   ",
"    ..X     X ..  X...X      XX   o.   XX   X...X        ..oX   ",
"    XX        XX   XXX         XXXXXXX       XXX         XXX    ",
"    o              o o          o o o         o            o    ",
"                                                                ",
"                                                                ",
"                                                                ",
"                                                                ",
"                                                                ",
"                                                                ",
"                                                                ",
"                                                                ",
"                                                                ",
"                                                                ",
"                                                                ",
"                                                                ",
"                                                                ",
"                                                                ",
"                                                                "
};
