/* XPM */
static char *_b827b44a49a43bbb7110a57972be556a0jHTR3ERRjNQEkL[] = {
/* columns rows colors chars-per-pixel */
"64 64 6 1 ",
"  c #78AEF7",
". c #741414",
"X c #AA6893",
"o c #7F5751",
"O c #61A9F8",
"+ c white",
/* pixels */
"                                                                ",
"                                                                ",
"                                                                ",
"                                                                ",
"                                                                ",
"                                                                ",
"                                                                ",
"                                                                ",
"                                                                ",
"                                                                ",
"                                                                ",
"                                                                ",
"                                                                ",
"                                                                ",
"                                                                ",
"                                                                ",
"                                                                ",
"                                                                ",
"                                                                ",
"                                                                ",
"                                                                ",
"      ...............     Xo....oX        oo.....oX             ",
"      .ooooo...oooo.o    ...ooo....X      ...oooo...            ",
"            ..X        X..o     Xo..X     ..o     ...           ",
"            ..o        ..o        o..     o.o      ..X          ",
"            ..o       o.o          ..o    ..o      ..o          ",
"            ..o       ..X          X..    o.o      o..          ",
"            ..o      o.o            o.X   ..o      o..          ",
"            ..o      o.o            o.o   o.o      ..o          ",
"            ..o      ..X            o.o   ..o      ..           ",
"            ..o      ..X            o.o   ..o     ..o           ",
"            ..o      ..X            o.o   ...XXXo..o            ",
"            ..o      ..X            o.o   o......oX             ",
"            ..o      o.o            o.X   ..o XX                ",
"            ..o      o.o            ..X   o.o                   ",
"            ..o      X..X          o..    ..o                   ",
"            ..o       ..o          o.o    o.o                   ",
"            ..o       X..o        o..     ..o                   ",
"            ..o        X..o     Xo..      o.o                   ",
"            ..X        OX...ooo....       ..o                   ",
"            ..o           Xo....oX        ...                   ",
"                                                                ",
"                                                                ",
"                                                                ",
"                                                                ",
"                                                                ",
"                                                                ",
"                                                                ",
"                                                                ",
"                                                                ",
"                                                                ",
"                                                                ",
"                                                                ",
"                                                                ",
"                                                                ",
"                                                                ",
"                                                                ",
"                                                                ",
"                                                                ",
"                                                                ",
"                                                                ",
"                                                                ",
"                                                                ",
"                                                                "
};
