/* XPM */
static char *result[] = {
/* columns rows colors chars-per-pixel */
"64 64 10 1 ",
"  c #21181C",
". c #000204",
"X c #362264",
"o c #941433",
"O c #5984A3",
"+ c #3F4A76",
"@ c #C82108",
"# c #D19E21",
"$ c #E25D08",
"% c white",
/* pixels */
"    .......     . .........................XXXXXXX..............",
"     . .           .........................XXXXXXX.............",
"                   ..........................XXXXX..............",
"         .          ..........................XXXXX.............",
"                     ..........................XXXX.............",
"               .   . ...........................XXX.............",
"                    . ...........................XXX............",
"                      ...........................XXX............",
"       X             ... .  ....o........... .....XX............",
"       XX             ...   O .ooo......    ......XXX...........",
"       XX             ..  XX    o ......  X . ....XXXX..........",
"      XXX  XX          .  XXX      ..... X     .. XXXXX.........",
"     XXXXXX XX            XXOX      ....O      ..XXXXX  ........",
"X   XXXX   XXXX X        XXXXO       ..O       . XXXXXX. .......",
"XXXXXXX     XXXX         XXXXXo       o.. .  ..  XX XX X .......",
"XXXXX         X X   X    X+XXXXoX O  o .......  XX XXXX  .......",
" X                XXXXXXXX++XXXX@OOO@     ...   XXXXXXX . ......",
"                 XXXXXXXXXXXXXXXO@o@O         XXX X XXX.........",
"       X         XX.X.X.XXXXX..OOo#oOO  XX X XX  X XXXX ........",
"    XXXXX       XXXX.......X....O@o@OXXXXXXXX   X XXXXX.........",
"  XXXXX+X+XXXXXXXXX.............@OOO@XXXXXXXXXXXXXXXXX..........",
"  XXXX+X.XXXXX+XXXXX...........o..O..oXXXXXXXXXXXXXXXX..........",
" XXXX+X.....XX+++XXX..........o.......o+XXX+++++++XXXX..........",
"XXXX+X......XX+++XXX.........O.........O++++++O+++XXXX .........",
"XXXXX.......XX+++XXX........O..........XO++O+OOOO+XXXXX.........",
"XXXX+X.......XX+XXXX.......X...........X+X++OOOOO++XXXX.........",
"XXX+++......XXXXXXX.......X............X++X++OOOO+++XXXX.....+..",
"XXXXX+.......XXXX........ .............X+++ +OOOOOO++XXX....+++.",
"XXXXX++.......X......... .............XXX+++ OOOOOOO++XXXX...+..",
" XXXXX++..............................XX+X++OOOOOOOOO++XXXX.....",
" X XXX ++............................XXXX++++OOOOOOOO+++XXXXXX..",
"XX    X ++...........................XXXXX+++OOOOOOOO++XXXXXXX..",
"XX       ++.........................XXXXX++++OOOOOOO++++XXX+XXX.",
"         ++.........................XXXXX+++O++OO++++++X+X+XXXXX",
"         ++.........................XXXX+X++++++++++X+++++XXXXXX",
"         ++.........................XXXXXX+++++++++XXXXX+XXXXXXX",
"         ++...........................XXXXX++XXXXXXXXXXXXXXXX+XX",
"        +++............................XXXXXX.XXXX..XXXXXXXXXXXX",
"X      ++++...............................X.XXXX.......XXXXXXXXX",
"X       ++++.+...............................XXXX....... XXXXXXX",
"XX     +++++++XXX...............................XX.......XXXXXXX",
"X     +++++++++XXXXXXX...........................XX....... XXXXX",
"XX    ++++++  XXX++XXX...........................XX........XXXX+",
"X    .+++++   XX++++XXX++++O.....................XX....X..  XXX+",
" X   .+++++ .  XX+++XXX+++XOo...................XX....... .XXXX+",
"X    .+++++.  XXX++XX.X++XXO@#.................XX......... XXX++",
"XX  ...+..... XXX+++X  XXX+O$#.............XXXX............XX++O",
"XX  .. . .....XXX+O++XXXXXOo##............X$$o+.............XX++",
"XX   .. .....XXXX+Oo++X++Oo##$@.........$$@@$@++............XX++",
"XXX  . . . ...XX++Oo@ooo@$#$#@@oo.....#$$$$@$@OX............XX++",
"XXX   . . ...XX++OOo@$$####$@@@oO@$#####@$$$#$O+.............XXX",
"XXX      .X.XXX++OOO@@$$$@$@$@oOOo$####$$@$##@O+..............XX",
"XOXX     XXXXX+++OOoo@@$@@@$@@oOOO@#########$oO+...............X",
"XXX      XXX+X++++OOoOo@$@@@@ooOOOO@#######$$oO................X",
"XOXO     XX++++++OOOOOoo@@@@ooooO+OO@######@@o..................",
"+XXXX   XXXX+++++OOOOOOo@o@ooOoOO+X+OO@$###@O...................",
"+O++XXXXXXX++++++OOOOOOoo@o@oOOO++X..+OOOOOO....................",
"OOO++XXXXX+++++++OOOoOooo@@ooOO++++++...........................",
"OOOO+++++++++++++OOoooo@@@ooOO++++++++.......XX+................",
"OOOOOO+OO++X++O+O+OOo@@o@oooOO++++++OO+++...++O++.....+++X......",
"OOOoOoOoOO+++O++++OOoOooooooOO+++++OOOOO+O+OOOOO++++++++++......",
"+OOOoooooOO+OOO+++OOOOoooo@oO+++++++OOOOOoooo@@@oOOOO+OO+++.....",
"+OOOO@@@oooOOoOO++OOOOOoo@ooOO+++++++OOOooo@@$$$@@ooOOOO+++X....",
"++OOoo@o@o@ooOOOOOOOoOOooooooO++++O+++OOoo@@$$##$@@ooOooO++....."
};
