/* XPM */
static char *result[] = {
/* columns rows colors chars-per-pixel */
"64 64 10 1 ",
"  c #000A03",
". c #102217",
"X c #1D3928",
"o c #2F5C41",
"O c #4D8060",
"+ c #89A257",
"@ c #BEDC7F",
"# c #EDFFCC",
"$ c #040B05",
"% c white",
/* pixels */
"  .     ....X.....XXooOooooooooXXX. .     . . . XXXooO+@#######@",
"       ..XXX.X.XXXXXooooooooXoXXXX .       . X   XXooOO@#######@",
"      ..XXX.XXXXXXoXXoooooXXXXXXX .         X     XXooO+##$###@+",
"       ..XXX.XXXXXXoXoXXXXXXXXXX.            X     XoOO+@#$#@@++",
"        ..XXX.XXXXoooXXXX X XXXX.             X X XXooO+@+.++O++",
"        $..XX.XXXXXooXXX X   X....             X XXooOOOOO.OOOO+",
"          . X.XXXXXXXXX   .   . .               XoooooOooo.oooOO",
"             XXXXXXXXXX. . .     .              XooooooooooooooO",
"            . ..XXXXXXX         ...             ooooooooo o  ooo",
"                .XXXXX   .                     X ooooooo  o  o  ",
"                .XXXXXX X                     O ooo X .   O   . ",
"                 XXXXXXXXX   .             o oo+oooX   o  O  o  ",
"               o..XXXXXXXXX XXX           oooo+++oo     o + o   ",
"               . .XXXXXXXXXX XX.     X   Xooo  + Xoo     O#O . .",
"                ..XXXXXXXXXXXXXXX   XXX XXo   $$...oooOO+###@OOo",
"                 ...XXXXXXXXXXXXXX.XXXXXXo         XO    O#O . .",
"                 ...XXXXXXoXoXXXXXXXoXXXX     ooX   OX  o + o . ",
"                 . ....XXoooXXXXXoooXXXXXX   oOOOX  oo o..O. o .",
"                 .....XXXXXXoXXXXXoXoXXXX   XOOOOoX Oo....O.. . ",
"                 ......XXXXXXXXXXXXXooX.   XXOOOOO  OXXX..o... .",
"                  .....XXXXXXXX...XXoXX..  .oOoOOo .XXXXX.o..   ",
"                 ... ..XXXXXXX.....XXXX... .XoOOoX$XX   X o.    ",
"              $  ...$ .............XXXXX....XXoXX.$X.    X...   ",
"                $..$$..............XXoXX.....X.X...... .  .X    ",
"                ...$$$.............XXXXXX.............. .X.     ",
"               $$...$$$$$..........XXoXXXX.......o.......X$     ",
"              $$.....$$$$$$$$$......oooXX.......ooo......X$     ",
"             $$.......$$$$$$$$$.....XoooX........oo.....X      $",
"            $$......$$$$$$$$$$$$..oooooooX......ooo....o      $$",
"           $$.......$$$$$$$$$$$$$oo...ooooXX...oooO.oo.        $",
"          $$$$.$.$$$$$$$$$$$$$$$$o.......oOoOoOoooOooo        $ ",
"         $$$$$$$$$$$$$$$$$$$$$$$$O..............oo+oo        $ $",
"        $$$$$$$$$$$$$$$$$$$$$$$$Oo...............O#O$           ",
"       $$$$$$$$$$$$$$$$$$$$$$$$OOO....$$...oooOO+###@OOoooXXX.. ",
"        $ $$$$$$$$$$$$$$$$$$$$$OOo...............O#O            ",
"         $$$$$$$$$$$$$$$$$$$$$$OOOo.............oO+ o           ",
"        $$$ $ $ $$$$$$$$$$$$$$OOOooo...........o.oO  o          ",
"       $$$$$    $$ $$$$$$.$$$+OOOOo...............O   .         ",
"        $$$$    $$$$$$$$$$$$+OOOOo...............oo             ",
"         $$$ $ $ $$$$$$$$+++OOO.O................Oo             ",
"        $$$ $ $$$$$$$$++++++XO................... o             ",
"       $$$$$$$$$$$$$$++X+X.X....................O .             ",
"       $$$$$$$$$$$$ $OX.X.X..................OO   .             ",
"       $$$$$$$$$$$$$O...................OOOO      .             ",
"        $$$$$$$$$$$$O..................O          $             ",
"         $$$$$$$$$$$O.................O           $             ",
"$       $$$$$$$$$$$$.................O                          ",
"$$     $$$$$$$$$$$$Oo...............OO                         $",
"$       $$$$$$$$$$$$o..............OO                       $ $$",
"         $$$$$$$$$$$o.............OO                       $$$$$",
"$        $$$$$$$$$$$oo.........oooO                       $$$$$$",
"$        $$$$$$$$$$$$ooooooooooo                           $$$$$",
"$       $$$$$$$$$$$$$$$$$$$$$$$$                          $$$$$$",
"$        $$$$$$$$$$$$$$$$$$$$$$$                          $$$$$$",
"$$    $$$$$XXXXXX$$$$$$$$$$$$$$$$                        $$$$$$$",
"..$$  $$ $XXX. .XX$$$.$$$$$$$$$$$$                       $$$$$$$",
"$$.$$ $$$ XX     X$$.$$$$$$$$$$$$ $                       $$$$$$",
"$$ $$$ $$XX     XX$.$.$$$$$$$$$$$$                         $$$$$",
"$$$ $$$ $$XX     X$...$$$$$$$$$$$$$                        $$$$$",
".$$$ $$$ $$XX   XX$....$$$$$$$$$$$                         $$$$$",
"..$$  $$$$$$XXXXXX$$$$.$$$$$$$$$$$                          $$$$",
"$$ $   $$$$$$XXX.X$$$$$$$$$$$$$$ $                         $$$$$",
"$   $  $$$$$$$$$$$.$.......$$$$                             $$$$",
"    $$ $$$$$$$$$$$...       ..$$                             $  "
};
