/* XPM */
static char *result[] = {
/* columns rows colors chars-per-pixel */
"64 64 10 1 ",
"  c #FEA6A4",
". c #2E242A",
"X c #ED697B",
"o c #AA5574",
"O c #72464B",
"+ c #34ACBA",
"@ c #72DCBA",
"# c #FFE07E",
"$ c #FFE6D6",
"% c white",
/* pixels */
" .......XXo.oooooOOOOOOOo.............oXXXX +++++    XXXooooXoX.",
". ...X.X.XooooooooOOOOOOO.............oXXXX  +++++  XXXXooooXX..",
" .X.......XooooooooooOOOO.............ooXXX +++++    XXooooooo..",
"  .........o.oooooooooOOO.............oXXXX  +++++   XXXXooo....",
"+ X...........ooooooooOO..............XXXX  ++@+@+++  XXXoo.....",
"  .............oooooOoO...............oXXXX +@@#@@+++ XXXXo.....",
" XX.............OOO#OO.................oXX  +@@@@@@+@  X XX.....",
"XXXX..............OOOO..................XXX++@@@@#@@++    XX....",
" XX...............OOO...................X   ++@@#@@@@++   XXX...",
"XX.X................O...................X    +@@@@@@@@++    XX..",
" ......................................X      @@@@#@#@@+     XX.",
"........................................X    +@@+@@#@@@++ X X ..",
".......................................XXXXOo ++@@###@@++ XXX...",
"......................................oXXXoOo +++@#$@@++  XX....",
"X.......................OO.........oooooXXXX    +@###@++ XX.....",
".......XXXo.............OOOOOOOOOoooooooXXX     +@@@O@++ XX.....",
"......X+@@ o............OOOOOOOOOooooooXXX      ++@@o++  XX.....",
".o...X@@ ++X............OOOOOOOOOOoooooXX        +++ ++  X......",
"XoooX #+  +X............OOOOOOOOOOOoooXX    + + + +o o+  XX.....",
"XXXXX #+X @X...........OOOOOOOOOOOOooXXXX  +++++++o+@+o   XX....",
" X    #@+@@o............OOOOOOOOOOOooXXX  +++++Oo  @$@  oO .X...",
"X  ++@@#@@XO...........OOOOOOOOOOOOooXX    +++++++o+@+o   XX....",
"X @@###++Xo............OOOOOOOOOOOOooXXX    +++++++o o   XX.....",
".+@###@@ Xo............OOOOOOOOOOOoooXXXX    +++         XXX....",
"X +  +@@+Xo...........OOOOOOOOOOOooooooXX   + +   + o    XX.....",
"X+ XXX+#@ oo.......OOOOOOOOOOOOOOoooooooXXX        +O+  XXX.....",
"X  XXX @# Xo......OOOOOOOOOOOOOOOOooooooXXXX      + +++  XX.....",
". XXXX #+ oo.....OOOOoOOOOOOOOOOOOOooooooXXXX    +   +   XXX....",
"o. X X++ XXo......OOoooOOOOOOOOOOOooooooooooXX  ++   + XXXXXXXX.",
"...  +  XXoO.....OOOoooooOOOOOOOOoooooooooooXXX  + ++  XXXXXXXXX",
"......oXXoo.......OOoooooooOOOOOoooooooOooooXX    +++  XXXXX   X",
".....ooooo.......OOoooooooooOoooooooooooooooXXX    +  XXXXXXXXXo",
"......Xo........OOooooooooooooooooooXoooooooXX    +   XXXXXXoooo",
"...X.o.......OOOOoooooooooOooooooooXXXooooooXXX       XXXo.o.ooo",
"............ooooooooooXXXoooooooXXXXXXXoooooXXXX    XXooo.o.o.oo",
"...........ooooooooooXXooo ooooXXXX  XXXXXoXXXXXX  XXo.o.o.....o",
"XXX.X.XXXoXXXoooooooXoXX o+o oooXXXX   XXXXXXXX   XXo.o.........",
"XXXXX XXXXXXXXoXXXoXXXXXX+@+oooXXXXXX     XXXXX  XX.............",
"XXX      X   XXOOooo   ++@$@++   oooOO           X..............",
"XXX  + +          XXoooXX+@+XXXXXXXXXX           X..............",
"XX    +++++   +   XooooX X+X XXXXXXX X    +   +  X..............",
"XX   +++++   +    XXooooXX XXoXXXXXXXXX          X..............",
"XX  +++++++ +++ +  XXoXXXXoXXoooooXXXXXX   X     XX.............",
"XX   + +++++++++   XXXoXXXOXoooooooXXXXXX XXX   X  XXo.o........",
"XXXX    +++++++ +  XXXXXXXXXXoooooooXXXXXXXXXX   X  XXooo.......",
".XXXXX   +++++++    XXXXXX XXXoooooXXXoooXXXXXXXX@  XXXXoo......",
"o.XX    +++@@+++++ XXXXXXX XXXoooooXXXXooooXXX X X   XXXXoo.o...",
"oo.XX    ++@++ ++++   XXXXXXXXoooXXXXXXXooooXXX X X XXXXoXoo.o..",
"XoX.XX    +++   + + +  XXXXXXXXoXXXXoXXXXoooXXXXXXXXXXXXooXoo.o.",
"oX.XXX        X    +++  XXXXXXXXXXXXoXXXoooooXXXXXXXXX@Xoo.o.o..",
".oX.XX     X X X  ++++ XXXXXXXXXXXXooooooooooXXXXXXXXXXXoooXo...",
"..oXXX    XXX      +++  XXXXXXXXXXXooooooXoooXXXXXXXXXXXoo.XXo..",
"...XXX  +  X    +    ++  XXoXXXX+oooooooooooooXXXXXXXXXoooo.X...",
"...XXX      X           XXXXoXoXoooooooooooooooXXXXXXXoooo...X..",
"....XX     X    + +X   XXXXoooooooooooooooooooooooXXXoooo.....X.",
"....XXX    XX  + +  X XXoooooooooooooooooooooooooooooooo.......X",
".....XX    X       XXXXooooooooooooooooooooOOooooooooooO........",
".....XXXX X X   XXXXXXooooOoOOOOOoOOOOOoOOOOOOooooooOOOo.o......",
".....XXXXXXX XXXXXXooooooOOOO...OOO.O.OOOOooooooooOOOOOoo.o.....",
"......XXXXX XXXXoooooooooOOO............OooooooooooO.OOo.o.o....",
".....XXoXXXXXXXoooXooooooOO..............oooooooooOO.Ooo..o.....",
".....X.ooXXXXXoooooooooo.O..............oooooXoooooo...Ooo......",
"....oXooooooooooooo.ooo.................ooooXXXooooOO...oo......",
"..oo.ooooooooooooooooo..................oooXXXoXoooo...Ooo......"
};
