/* XPM */
static char *result[] = {
/* columns rows colors chars-per-pixel */
"64 64 10 1 ",
"  c #1F2114",
". c #171711",
"X c #392702",
"o c #FE7831",
"O c #C9592E",
"+ c #953B3B",
"@ c #F29949",
"# c #DFD685",
"$ c #EAC275",
"% c white",
/* pixels */
"        .......     . .........................XXXXXXX..........",
"         . .           .........................XXXXXXX.........",
"                       ..........................XXXXX..........",
"             .          ..........................XXXXX.........",
"                         ..........................XXXX.........",
"                   .   . ...........................XXX.........",
"                        . ...........................XXX........",
"                          ...........................XXX........",
"           X             ... .  ....o........... .....XX........",
"           XX             ...   O .ooo......    ......XXX.......",
"X          XX             ..  XX    o ......  X . ....XXXX......",
"XX        XXX  XX          .  XXX      ..... X     .. XXXXX.....",
"XXX      XXXXXX XX            XXOX      ....O      ..XXXXX  ....",
"XXXXX   XXXX   XXXX X        XXXXO       ..O       . XXXXXX. ...",
"XXXXXXXXXXX     XXXX         XXXXXo       o.. .  ..  XX XX X ...",
"  XXXXXXX         X X   X    X+XXXXoX O  o .......  XX XXXX  ...",
"     X                XXXXXXXX++XXXX@OOO@     ...   XXXXXXX . ..",
"                     XXXXXXXXXXXXXXXO@o@O         XXX X XXX.....",
".          X         XX.X.X.XXXXX..OOo#oOO  XX X XX  X XXXX ....",
"..      XXXXX       XXXX.......X....O@o@OXXXXXXXX   X XXXXX.....",
".     XXXXX+X+XXXXXXXXX.............@OOO@XXXXXXXXXXXXXXXXX......",
"      XXXX+X.XXXXX+XXXXX...........o..O..oXXXXXXXXXXXXXXXX......",
".    XXXX+X.....XX+++XXX..........o.......o+XXX+++++++XXXX......",
"    XXXX+X......XX+++XXX.........O.........O++++++O+++XXXX .....",
"    XXXXX.......XX+++XXX........O..........XO++O+OOOO+XXXXX.....",
"    XXXX+X.......XX+XXXX.......X...........X+X++OOOOO++XXXX.....",
"   XXXX+++......XXXXXXX.......X............X++X++OOOO+++XXXX....",
"    XXXXX+.......XXXX........ .............X+++ +OOOOOO++XXX....",
"    XXXXX++.......X......... .............XXX+++ OOOOOOO++XXXX..",
"     XXXXX++..............................XX+X++OOOOOOOOO++XXXX.",
"     X XXX ++............................XXXX++++OOOOOOOO+++XXXX",
"X X XX    X ++...........................XXXXX+++OOOOOOOO++XXXXX",
"XX XXX       ++.........................XXXXX++++OOOOOOO++++XXX+",
"  XX         ++.........................XXXXX+++O++OO++++++X+X+X",
"   X         ++.........................XXXX+X++++++++++X+++++XX",
"  X          ++.........................XXXXXX+++++++++XXXXX+XXX",
"XXX          ++...........................XXXXX++XXXXXXXXXXXXXXX",
"XXX         +++............................XXXXXX.XXXX..XXXXXXXX",
"XXXXX      ++++...............................X.XXXX.......XXXXX",
"+XXXX       ++++.+...............................XXXX....... XXX",
"X+XXXX     +++++++XXX...............................XX.......XXX",
"+XXXX     +++++++++XXXXXXX...........................XX....... X",
"++XXXX    ++++++  XXX++XXX...........................XX........X",
"+XXXX    .+++++   XX++++XXX++++O.....................XX....X..  ",
"XXXX X   .+++++ .  XX+++XXX+++XOo...................XX....... .X",
"XXXXX    .+++++.  XXX++XX.X++XXO@#.................XX......... X",
"XXXXXX  ...+..... XXX+++X  XXX+O$#.............XXXX............X",
"XXXXXX  .. . .....XXX+O++XXXXXOo##............X$$o+.............",
"XXXXXX   .. .....XXXX+Oo++X++Oo##$@.........$$@@$@++............",
"XXXXXXX  . . . ...XX++Oo@ooo@$#$#@@oo.....#$$$$@$@OX............",
"XXXXXXX   . . ...XX++OOo@$$####$@@@oO@$#####@$$$#$O+............",
"XX++XXX      .X.XXX++OOO@@$$$@$@$@oOOo$####$$@$##@O+............",
"++++XOXX     XXXXX+++OOoo@@$@@@$@@oOOO@#########$oO+............",
"++++XXX      XXX+X++++OOoOo@$@@@@ooOOOO@#######$$oO.............",
"OO+OXOXO     XX++++++OOOOOoo@@@@ooooO+OO@######@@o..............",
"oOO++XXXX   XXXX+++++OOOOOOo@o@ooOoOO+X+OO@$###@O...............",
"OOO++O++XXXXXXX++++++OOOOOOoo@o@oOOO++X..+OOOOOO................",
"oOOOOOO++XXXXX+++++++OOOoOooo@@ooOO++++++.......................",
"OoOOOOOO+++++++++++++OOoooo@@@ooOO++++++++.......XX+............",
"OOOOOOOOOO+OO++X++O+O+OOo@@o@oooOO++++++OO+++...++O++.....+++X..",
"+OOOOOOoOoOoOO+++O++++OOoOooooooOO+++++OOOOO+O+OOOOO++++++++++..",
"+++++OOOoooooOO+OOO+++OOOOoooo@oO+++++++OOOOOoooo@@@oOOOO+OO+++.",
"XXXX+OOOO@@@oooOOoOO++OOOOOoo@ooOO+++++++OOOooo@@$$$@@ooOOOO+++X",
"XXXX++OOoo@o@o@ooOOOOOOOoOOooooooO++++O+++OOoo@@$$##$@@ooOooO++."
};
